<mxfile modified="2019-11-21T11:33:52.017Z" host="www.draw.io" agent="Mozilla/5.0 (Windows NT 10.0; Win64; x64) AppleWebKit/537.36 (KHTML, like Gecko) Chrome/78.0.3904.108 Safari/537.36" etag="uYJsFwEE5LKD4pdshJqm" version="12.2.8" type="github" pages="1">
  <diagram name="Page-1" id="74e2e168-ea6b-b213-b513-2b3c1d86103e">
    <mxGraphModel dx="2000" dy="1162" grid="1" gridSize="10" guides="1" tooltips="1" connect="1" arrows="1" fold="1" page="1" pageScale="1" pageWidth="1100" pageHeight="850" background="#ffffff" math="0" shadow="0">
      <root>
        <mxCell id="0"/>
        <mxCell id="1" parent="0"/>
        <mxCell id="Hjfj6JPSNnKyzx6FGj3c-5" value="" style="edgeStyle=orthogonalEdgeStyle;rounded=0;orthogonalLoop=1;jettySize=auto;html=1;" parent="1" source="Hjfj6JPSNnKyzx6FGj3c-3" target="Hjfj6JPSNnKyzx6FGj3c-4" edge="1">
          <mxGeometry relative="1" as="geometry"/>
        </mxCell>
        <mxCell id="Hjfj6JPSNnKyzx6FGj3c-3" value="需求方&lt;br&gt;提出需求和背景" style="rounded=1;whiteSpace=wrap;html=1;absoluteArcSize=1;arcSize=14;strokeWidth=2;shadow=0;comic=0;" parent="1" vertex="1">
          <mxGeometry x="524.5" y="40" width="100" height="100" as="geometry"/>
        </mxCell>
        <mxCell id="Hjfj6JPSNnKyzx6FGj3c-7" value="" style="edgeStyle=orthogonalEdgeStyle;rounded=0;orthogonalLoop=1;jettySize=auto;html=1;entryX=0.5;entryY=0;entryDx=0;entryDy=0;" parent="1" source="Hjfj6JPSNnKyzx6FGj3c-4" target="Hjfj6JPSNnKyzx6FGj3c-13" edge="1">
          <mxGeometry relative="1" as="geometry">
            <mxPoint x="574.5" y="330" as="targetPoint"/>
          </mxGeometry>
        </mxCell>
        <mxCell id="Hjfj6JPSNnKyzx6FGj3c-4" value="产品整理需求&lt;br&gt;1. 解决痛点&lt;br&gt;2. 用户体验" style="rounded=1;whiteSpace=wrap;html=1;absoluteArcSize=1;arcSize=14;strokeWidth=2;shadow=0;comic=0;align=left;" parent="1" vertex="1">
          <mxGeometry x="524.5" y="180" width="100" height="100" as="geometry"/>
        </mxCell>
        <mxCell id="Hjfj6JPSNnKyzx6FGj3c-16" value="" style="edgeStyle=orthogonalEdgeStyle;rounded=0;orthogonalLoop=1;jettySize=auto;html=1;entryX=0.5;entryY=0;entryDx=0;entryDy=0;entryPerimeter=0;" parent="1" source="Hjfj6JPSNnKyzx6FGj3c-13" target="Hjfj6JPSNnKyzx6FGj3c-17" edge="1">
          <mxGeometry relative="1" as="geometry">
            <mxPoint x="574.5" y="470" as="targetPoint"/>
          </mxGeometry>
        </mxCell>
        <mxCell id="Hjfj6JPSNnKyzx6FGj3c-13" value="产品根据要求 按时 输出原型，设计图或者说明" style="shape=parallelogram;perimeter=parallelogramPerimeter;whiteSpace=wrap;html=1;shadow=0;comic=0;" parent="1" vertex="1">
          <mxGeometry x="408.5" y="340" width="332" height="110" as="geometry"/>
        </mxCell>
        <mxCell id="Hjfj6JPSNnKyzx6FGj3c-18" style="edgeStyle=orthogonalEdgeStyle;rounded=0;orthogonalLoop=1;jettySize=auto;html=1;entryX=1;entryY=0.5;entryDx=0;entryDy=0;" parent="1" source="Hjfj6JPSNnKyzx6FGj3c-17" target="Hjfj6JPSNnKyzx6FGj3c-4" edge="1">
          <mxGeometry relative="1" as="geometry">
            <Array as="points">
              <mxPoint x="814.5" y="530"/>
              <mxPoint x="814.5" y="230"/>
            </Array>
          </mxGeometry>
        </mxCell>
        <mxCell id="Hjfj6JPSNnKyzx6FGj3c-19" value="验收不通过" style="text;html=1;resizable=0;points=[];align=center;verticalAlign=middle;labelBackgroundColor=#ffffff;" parent="Hjfj6JPSNnKyzx6FGj3c-18" vertex="1" connectable="0">
          <mxGeometry x="-0.1823" y="-1" relative="1" as="geometry">
            <mxPoint as="offset"/>
          </mxGeometry>
        </mxCell>
        <mxCell id="Hjfj6JPSNnKyzx6FGj3c-21" value="" style="edgeStyle=orthogonalEdgeStyle;rounded=0;orthogonalLoop=1;jettySize=auto;html=1;entryX=0.5;entryY=0;entryDx=0;entryDy=0;entryPerimeter=0;" parent="1" source="Hjfj6JPSNnKyzx6FGj3c-17" target="gJkyiF_997yVqqTsfLPQ-2" edge="1">
          <mxGeometry relative="1" as="geometry">
            <mxPoint x="575" y="680" as="targetPoint"/>
          </mxGeometry>
        </mxCell>
        <mxCell id="Hjfj6JPSNnKyzx6FGj3c-36" value="&lt;span style=&quot;text-align: left ; background-color: rgb(248 , 249 , 250)&quot;&gt;验收通过&lt;/span&gt;" style="text;html=1;resizable=0;points=[];align=center;verticalAlign=middle;labelBackgroundColor=#ffffff;" parent="Hjfj6JPSNnKyzx6FGj3c-21" vertex="1" connectable="0">
          <mxGeometry x="-0.2" y="1" relative="1" as="geometry">
            <mxPoint as="offset"/>
          </mxGeometry>
        </mxCell>
        <mxCell id="Hjfj6JPSNnKyzx6FGj3c-17" value="需求方验收输出结果" style="strokeWidth=2;html=1;shape=mxgraph.flowchart.decision;whiteSpace=wrap;shadow=0;comic=0;" parent="1" vertex="1">
          <mxGeometry x="434.5" y="480" width="280" height="100" as="geometry"/>
        </mxCell>
        <mxCell id="Hjfj6JPSNnKyzx6FGj3c-25" value="" style="edgeStyle=orthogonalEdgeStyle;rounded=0;orthogonalLoop=1;jettySize=auto;html=1;exitX=0.5;exitY=1;exitDx=0;exitDy=0;exitPerimeter=0;" parent="1" source="gJkyiF_997yVqqTsfLPQ-2" target="Hjfj6JPSNnKyzx6FGj3c-24" edge="1">
          <mxGeometry relative="1" as="geometry">
            <mxPoint x="574" y="970" as="sourcePoint"/>
            <Array as="points">
              <mxPoint x="574" y="770"/>
            </Array>
          </mxGeometry>
        </mxCell>
        <mxCell id="BV-QPbO4TsAcMV4W6xeq-4" value="无" style="text;html=1;resizable=0;points=[];align=center;verticalAlign=middle;labelBackgroundColor=#ffffff;" parent="Hjfj6JPSNnKyzx6FGj3c-25" vertex="1" connectable="0">
          <mxGeometry x="-0.2394" y="3" relative="1" as="geometry">
            <mxPoint as="offset"/>
          </mxGeometry>
        </mxCell>
        <mxCell id="Hjfj6JPSNnKyzx6FGj3c-27" value="" style="edgeStyle=orthogonalEdgeStyle;rounded=0;orthogonalLoop=1;jettySize=auto;html=1;" parent="1" source="Hjfj6JPSNnKyzx6FGj3c-24" target="Hjfj6JPSNnKyzx6FGj3c-28" edge="1">
          <mxGeometry relative="1" as="geometry">
            <mxPoint x="574" y="1230" as="targetPoint"/>
          </mxGeometry>
        </mxCell>
        <mxCell id="Hjfj6JPSNnKyzx6FGj3c-24" value="开发时间" style="rounded=1;whiteSpace=wrap;html=1;absoluteArcSize=1;arcSize=14;strokeWidth=2;shadow=0;comic=0;" parent="1" vertex="1">
          <mxGeometry x="524" y="1050" width="100" height="100" as="geometry"/>
        </mxCell>
        <mxCell id="Hjfj6JPSNnKyzx6FGj3c-30" value="" style="edgeStyle=orthogonalEdgeStyle;rounded=0;orthogonalLoop=1;jettySize=auto;html=1;entryX=0.5;entryY=0;entryDx=0;entryDy=0;" parent="1" source="Hjfj6JPSNnKyzx6FGj3c-28" target="Hjfj6JPSNnKyzx6FGj3c-31" edge="1">
          <mxGeometry relative="1" as="geometry">
            <mxPoint x="574" y="1430" as="targetPoint"/>
          </mxGeometry>
        </mxCell>
        <mxCell id="Hjfj6JPSNnKyzx6FGj3c-32" value="通过" style="text;html=1;resizable=0;points=[];align=center;verticalAlign=middle;labelBackgroundColor=#ffffff;" parent="Hjfj6JPSNnKyzx6FGj3c-30" vertex="1" connectable="0">
          <mxGeometry x="-0.24" y="-1" relative="1" as="geometry">
            <mxPoint as="offset"/>
          </mxGeometry>
        </mxCell>
        <mxCell id="Hjfj6JPSNnKyzx6FGj3c-38" style="edgeStyle=orthogonalEdgeStyle;rounded=0;orthogonalLoop=1;jettySize=auto;html=1;entryX=0.5;entryY=1;entryDx=0;entryDy=0;" parent="1" source="Hjfj6JPSNnKyzx6FGj3c-28" target="Hjfj6JPSNnKyzx6FGj3c-44" edge="1">
          <mxGeometry relative="1" as="geometry">
            <mxPoint x="274.5" y="960" as="targetPoint"/>
          </mxGeometry>
        </mxCell>
        <mxCell id="Hjfj6JPSNnKyzx6FGj3c-39" value="不通过" style="text;html=1;resizable=0;points=[];align=center;verticalAlign=middle;labelBackgroundColor=#ffffff;" parent="Hjfj6JPSNnKyzx6FGj3c-38" vertex="1" connectable="0">
          <mxGeometry x="0.2111" y="-3" relative="1" as="geometry">
            <mxPoint as="offset"/>
          </mxGeometry>
        </mxCell>
        <mxCell id="Hjfj6JPSNnKyzx6FGj3c-28" value="需求方，产品验收结果" style="strokeWidth=2;html=1;shape=mxgraph.flowchart.decision;whiteSpace=wrap;shadow=0;comic=0;" parent="1" vertex="1">
          <mxGeometry x="474" y="1250" width="200" height="100" as="geometry"/>
        </mxCell>
        <mxCell id="Hjfj6JPSNnKyzx6FGj3c-31" value="交付结果" style="rounded=1;whiteSpace=wrap;html=1;absoluteArcSize=1;arcSize=14;strokeWidth=2;shadow=0;comic=0;" parent="1" vertex="1">
          <mxGeometry x="524" y="1450" width="100" height="100" as="geometry"/>
        </mxCell>
        <mxCell id="Hjfj6JPSNnKyzx6FGj3c-35" value="&lt;h1&gt;备注&lt;/h1&gt;&lt;p&gt;需求方可与产品协商，产品的成果日期和输出结果&lt;/p&gt;" style="text;html=1;strokeColor=none;fillColor=none;spacing=5;spacingTop=-20;whiteSpace=wrap;overflow=hidden;rounded=0;shadow=0;comic=0;" parent="1" vertex="1">
          <mxGeometry x="294.5" y="30" width="230" height="120" as="geometry"/>
        </mxCell>
        <mxCell id="Hjfj6JPSNnKyzx6FGj3c-43" style="edgeStyle=orthogonalEdgeStyle;rounded=0;orthogonalLoop=1;jettySize=auto;html=1;exitX=0.5;exitY=0;exitDx=0;exitDy=0;entryX=0;entryY=0.5;entryDx=0;entryDy=0;" parent="1" source="Hjfj6JPSNnKyzx6FGj3c-44" target="Hjfj6JPSNnKyzx6FGj3c-4" edge="1">
          <mxGeometry relative="1" as="geometry">
            <mxPoint x="264.5" y="949.6666666666667" as="sourcePoint"/>
          </mxGeometry>
        </mxCell>
        <mxCell id="Hjfj6JPSNnKyzx6FGj3c-46" value="产品的问题" style="text;html=1;resizable=0;points=[];align=center;verticalAlign=middle;labelBackgroundColor=#ffffff;" parent="Hjfj6JPSNnKyzx6FGj3c-43" vertex="1" connectable="0">
          <mxGeometry x="-0.4916" relative="1" as="geometry">
            <mxPoint as="offset"/>
          </mxGeometry>
        </mxCell>
        <mxCell id="BV-QPbO4TsAcMV4W6xeq-2" style="edgeStyle=orthogonalEdgeStyle;rounded=0;orthogonalLoop=1;jettySize=auto;html=1;" parent="1" source="Hjfj6JPSNnKyzx6FGj3c-44" target="Hjfj6JPSNnKyzx6FGj3c-24" edge="1">
          <mxGeometry relative="1" as="geometry">
            <Array as="points">
              <mxPoint x="470" y="1090"/>
              <mxPoint x="470" y="1090"/>
            </Array>
          </mxGeometry>
        </mxCell>
        <mxCell id="BV-QPbO4TsAcMV4W6xeq-3" value="程序问题" style="text;html=1;resizable=0;points=[];align=center;verticalAlign=middle;labelBackgroundColor=#ffffff;" parent="BV-QPbO4TsAcMV4W6xeq-2" vertex="1" connectable="0">
          <mxGeometry x="0.4706" y="-24" relative="1" as="geometry">
            <mxPoint x="-24" y="-24" as="offset"/>
          </mxGeometry>
        </mxCell>
        <mxCell id="Hjfj6JPSNnKyzx6FGj3c-44" value="不通过原因" style="rhombus;whiteSpace=wrap;html=1;shadow=0;comic=0;" parent="1" vertex="1">
          <mxGeometry x="240" y="1050" width="80" height="80" as="geometry"/>
        </mxCell>
        <mxCell id="gJkyiF_997yVqqTsfLPQ-3" style="edgeStyle=orthogonalEdgeStyle;rounded=0;orthogonalLoop=1;jettySize=auto;html=1;entryX=1;entryY=0.25;entryDx=0;entryDy=0;" parent="1" source="gJkyiF_997yVqqTsfLPQ-2" target="Hjfj6JPSNnKyzx6FGj3c-4" edge="1">
          <mxGeometry relative="1" as="geometry">
            <Array as="points">
              <mxPoint x="990" y="720"/>
              <mxPoint x="990" y="205"/>
            </Array>
          </mxGeometry>
        </mxCell>
        <mxCell id="BV-QPbO4TsAcMV4W6xeq-5" value="有" style="text;html=1;resizable=0;points=[];align=center;verticalAlign=middle;labelBackgroundColor=#ffffff;" parent="gJkyiF_997yVqqTsfLPQ-3" vertex="1" connectable="0">
          <mxGeometry x="-0.4759" y="165" relative="1" as="geometry">
            <mxPoint x="1" as="offset"/>
          </mxGeometry>
        </mxCell>
        <mxCell id="gJkyiF_997yVqqTsfLPQ-2" value="产品和开发讨论需求是否有更优解决方案" style="strokeWidth=2;html=1;shape=mxgraph.flowchart.decision;whiteSpace=wrap;shadow=0;comic=0;" parent="1" vertex="1">
          <mxGeometry x="477.5" y="670" width="200" height="100" as="geometry"/>
        </mxCell>
        <mxCell id="pQ5k8nrW6vI95A85Fro5-1" value="&lt;ul&gt;&lt;li&gt;&amp;nbsp;交付需求备好文档&lt;/li&gt;&lt;li&gt;&amp;nbsp;按文档操作流程，验收功能&lt;/li&gt;&lt;/ul&gt;" style="text;strokeColor=none;fillColor=none;html=1;whiteSpace=wrap;verticalAlign=middle;overflow=hidden;" vertex="1" parent="1">
          <mxGeometry x="612.5" y="1460" width="204" height="80" as="geometry"/>
        </mxCell>
      </root>
    </mxGraphModel>
  </diagram>
</mxfile>
